<svg
    xmlns="http://www.w3.org/2000/svg"
    height="48"
    width="48"
    viewBox="0 0 48 48"
  >
    <path
      id="mail"
      fill="#ef9a4e"
      d="M41,40.938V14.127a4,4,0,0,0-4-4H4.439A23.99,23.99,0,1,1,41,40.938ZM36.993,44.16A23.959,23.959,0,0,1,.029,24.573L13.021,34.866c0.045,0.026.092,0.04,0.138,0.062l0.017,0.008a1.985,1.985,0,0,0,.326.122c0.025,0.007.05,0.011,0.076,0.017a1.976,1.976,0,0,0,.276.046c0.059,0.006.117,0,.177,0s0.118,0,.177,0a1.976,1.976,0,0,0,.276-0.046c0.025-.006.051-0.01,0.076-0.017a1.985,1.985,0,0,0,.326-0.122l0.017-.008c0.046-.022.094-0.037,0.138-0.062L36.993,17.483V44.16ZM34.785,14.147l-20.753,16.5L0.392,19.791a23.792,23.792,0,0,1,1.752-5.667H34.552C34.632,14.124,34.707,14.14,34.785,14.147Z"
    />
  </svg>