<svg xmlns="http://www.w3.org/2000/svg" width="200" height="200" viewBox="0 0 200 200">
  <defs>
    <style>
      .cls-1 {
        fill: #fff;
        fill-rule: evenodd;
      }
    </style>
  </defs>
  <path id="qr-logo" class="cls-1" d="M192.225,150.936h-6.82a1.653,1.653,0,0,1-1.462-1.109s-0.176-.519-0.336-1.059a3.064,3.064,0,0,1-.017-2.239c0.761-2.4,2.6-7.918,3.559-10.947,0.262-.834.961-0.834,1.257,0.1,1.419,4.473,4.576,14.144,4.576,14.144A0.783,0.783,0,0,1,192.225,150.936Zm-13.953-1.109a1.653,1.653,0,0,1-1.462,1.109h-6.82a0.783,0.783,0,0,1-.756-1.109l7.279-22.654a1.654,1.654,0,0,1,1.462-1.108h6.82a0.782,0.782,0,0,1,.756,1.108Zm-13.679,0a1.653,1.653,0,0,1-1.462,1.109h-6.82a0.783,0.783,0,0,1-.756-1.109l7.279-22.654a1.654,1.654,0,0,1,1.462-1.108h6.82a0.782,0.782,0,0,1,.756,1.108Zm-5.744-45.739H136.657a5.38,5.38,0,0,1-4.755-3.609s-0.574-1.691-1.1-3.447c-0.8-2.687-1.081-4.048-.056-7.284,2.478-7.819,8.475-26.578,11.58-36.434,0.855-2.713,3.13-2.712,4.093.328,4.616,14.554,14.887,46.837,14.887,46.837C161.944,102.472,160.842,104.088,158.849,104.088Zm-44.483-3.609a5.383,5.383,0,0,1-4.756,3.609H87.419c-1.993,0-3.095-1.616-2.462-3.609L108.644,25.7A5.38,5.38,0,0,1,113.4,22.1h22.192c1.993,0,3.095,1.616,2.461,3.608Zm-44.384,0a5.381,5.381,0,0,1-4.755,3.609H43.035c-1.993,0-3.095-1.616-2.462-3.609L64.26,25.7A5.381,5.381,0,0,1,69.016,22.1H91.207c1.993,0,3.095,1.616,2.462,3.608ZM29.376,150.307a1.213,1.213,0,0,1-1.074.816H20.954a0.577,0.577,0,0,1-.559-0.816l7.474-23.426a1.213,1.213,0,0,1,1.074-.816h7.348a0.577,0.577,0,0,1,.559.816Zm-13.977,0a1.213,1.213,0,0,1-1.074.816H6.976a0.577,0.577,0,0,1-.559-0.816l7.474-23.426a1.213,1.213,0,0,1,1.074-.816h7.348a0.577,0.577,0,0,1,.559.816Zm7.685,12.562L22.075,165.9h1.943l1.009-3.027h2.189l-2.766,8.164H22.267l1.12-3.328H21.454l-1.131,3.328H18.14l2.76-8.164h2.183Zm13.27,0-0.587,1.77H33.1l-0.425,1.285h2.479l-0.626,1.77H32.051l-0.514,1.541H34.2l-0.607,1.8H28.746l2.76-8.164h4.847Zm-1.9-12.562,7.474-23.426A1.213,1.213,0,0,1,43,126.065H59.274a0.577,0.577,0,0,1,.559.816l-1.4,4.441a1.215,1.215,0,0,1-1.074.817H48.112L46.988,135.7h9.245a0.578,0.578,0,0,1,.559.817l-1.381,4.126a1.213,1.213,0,0,1-1.074.816H45.091l-1.144,3.625h9.245a0.577,0.577,0,0,1,.559.816l-1.4,4.442a1.215,1.215,0,0,1-1.074.816H36.847a0.61,0.61,0,0,1-.151-0.033H35.011A0.577,0.577,0,0,1,34.453,150.307ZM42.6,162.869l-2.154,6.383h2.664L42.5,171.033H37.654l2.76-8.164H42.6Zm8.219,0a3.094,3.094,0,0,1,2.139.634,1.97,1.97,0,0,1,.544,1.812,3.143,3.143,0,0,1-1.237,2.209,4.392,4.392,0,0,1-2.723.8h-0.48l-0.9,2.708H45.974l2.76-8.164h2.083Zm-0.789,3.669a1.225,1.225,0,0,0,.862-0.327,1.313,1.313,0,0,0,.418-0.829,0.646,0.646,0,0,0-.134-0.53,0.663,0.663,0,0,0-.527-0.2H50.317l-0.641,1.887h0.352Zm15.115-39.624a1.214,1.214,0,0,1,1.074-.817h6.806a0.578,0.578,0,0,1,.559.817L67.7,145.082h8.973a0.577,0.577,0,0,1,.559.816l-1.4,4.442a1.215,1.215,0,0,1-1.074.816H58.145a0.578,0.578,0,0,1-.559-0.816Zm-3.005,37.759,0.614-1.8h5.741l-0.625,1.8H66.091l-2.129,6.36H61.778l2.129-6.36h-1.77Zm8.829,0.609a5.3,5.3,0,0,1,1.806-1.891,4.49,4.49,0,0,1,2.369-.65,2.665,2.665,0,0,1,2.154.829,2.885,2.885,0,0,1,.514,2.315,7.175,7.175,0,0,1-.9,2.717,5.251,5.251,0,0,1-1.772,1.887,4.382,4.382,0,0,1-2.35.656,2.759,2.759,0,0,1-2.215-.832A2.858,2.858,0,0,1,70.047,168,7.021,7.021,0,0,1,70.967,165.282Zm2.239,4.059a1.561,1.561,0,0,0,1.044-.463,3.755,3.755,0,0,0,.873-1.251,5.9,5.9,0,0,0,.478-1.72,1.52,1.52,0,0,0-.142-1,0.792,0.792,0,0,0-.731-0.36,1.61,1.61,0,0,0-1.076.469,3.921,3.921,0,0,0-.9,1.29,5.676,5.676,0,0,0-.489,1.681Q72.088,169.342,73.205,169.341ZM83.542,136.5l13.722,0a3.161,3.161,0,0,0,2.207-2.051l0.1-.326a1.528,1.528,0,0,0-.882-1.987l-13.887.006,1.662-5.264a1.214,1.214,0,0,1,1.074-.816H100.8a0.7,0.7,0,0,1,.133.028c4.068,0.212,6.243,3.528,4.982,7.736-1.492,4.978-3.475,7.3-7.62,7.6-0.115.045-2.316,0.024-2.433,0.024h-5.1l-2.794,8.85a1.213,1.213,0,0,1-1.074.816H79.551a0.577,0.577,0,0,1-.559-0.816ZM86.2,168.024l1.764-5.155h2.183l-1.735,5.1a3.49,3.49,0,0,0-.16.642,0.536,0.536,0,0,0,.586.709,1.152,1.152,0,0,0,.869-0.36,2.967,2.967,0,0,0,.595-1.1l1.7-4.987h2.183l-1.771,5.205a4.587,4.587,0,0,1-1.55,2.32,4.3,4.3,0,0,1-2.614.751,2.525,2.525,0,0,1-1.282-.307,1.8,1.8,0,0,1-.773-0.86,2.317,2.317,0,0,1-.153-1.234A4.192,4.192,0,0,1,86.2,168.024Zm14.408-5.155-1.2,3.485,0.254-.33q0.593-.8.864-1.089l1.921-2.066h2.563l-3.554,3.764,0.95,4.4H99.965L99.4,167.806l-0.581.312-0.972,2.915H95.665l2.76-8.164h2.184Zm4.3-13.042,7.28-22.654a1.654,1.654,0,0,1,1.462-1.108h6.82a0.782,0.782,0,0,1,.756,1.108l-7.279,22.654a1.653,1.653,0,0,1-1.462,1.109h-6.82A0.783,0.783,0,0,1,104.912,149.827Zm5.717,13.042a3.231,3.231,0,0,1,2.084.559,1.744,1.744,0,0,1,.536,1.681,3.182,3.182,0,0,1-.589,1.518,3,3,0,0,1-1.3.989l0.886,2.881,0.156,0.536h-2.379l-0.713-2.97H108.9l-1.007,2.97h-2.183l2.759-8.164h2.162Zm-0.884,3.535a1.237,1.237,0,0,0,1.3-1.156,0.622,0.622,0,0,0-.125-0.528,0.711,0.711,0,0,0-.539-0.181h-0.3L109.46,166.4h0.285Zm13.428-3.535-0.348,8.164H120.7l0.138-1.53h-2.5l-0.892,1.53h-2.267l5.189-8.164h2.809Zm-2.184,4.892,0.2-2.368,0.05-.48c0.035-.279.074-0.523,0.115-0.731a7.124,7.124,0,0,1-.458.927l-1.548,2.652h1.636Zm-0.071-16.825a1.653,1.653,0,0,1-1.462-1.109s-0.176-.519-0.337-1.059a3.074,3.074,0,0,1-.017-2.239c0.762-2.4,2.415-7.918,3.37-10.947,0.263-.834.962-0.834,1.258,0.1,1.418,4.473,4.764,14.144,4.764,14.144a0.783,0.783,0,0,1-.756,1.109h-6.82Zm10.193,11.933-2.76,8.164h-2.217l2.76-8.164h2.217Zm6.83,0,0.9,5.49h0.05q0.328-1.319.581-2.072l1.164-3.418h1.943l-2.759,8.164h-2.541l-0.887-5.74h-0.045a24.066,24.066,0,0,1-.614,2.334l-1.151,3.406H132.64l2.76-8.164h2.541Zm5.631-17.924c0.477,0.026.978-.151,1.519-0.163a21.948,21.948,0,0,0,5.439-.3,32.956,32.956,0,0,1,1.777,5.345,0.783,0.783,0,0,1-.756,1.109h-6.82a1.653,1.653,0,0,1-1.462-1.109s-0.176-.519-0.337-1.059a4.25,4.25,0,0,1-.017-2.644C143.112,145.5,143.334,145.583,143.572,144.945Zm5.51,17.924-2.76,8.164H144.1l2.76-8.164h2.217Zm-1.711-30.73-13.887.006,1.662-5.264a1.213,1.213,0,0,1,1.074-.816h13.261a0.7,0.7,0,0,1,.133.028c4.068,0.212,6.242,3.528,4.981,7.736-1.491,4.978-3.474,7.3-7.619,7.6-0.115.045-2.316,0.024-2.433,0.024h-5.1l-2.793,8.85a1.215,1.215,0,0,1-1.075.816h-2.785c-0.5-1.406-1.679-4.743-2.8-7.994l2.227-6.629,13.721,0a3.161,3.161,0,0,0,2.207-2.051l0.1-.326A1.528,1.528,0,0,0,147.371,132.139Zm10.325,30.73-0.347,8.164h-2.128l0.138-1.53h-2.5l-0.892,1.53H149.7l5.189-8.164H157.7Zm-2.183,4.892,0.2-2.368,0.049-.48q0.054-.419.115-0.731a7,7,0,0,1-.458.927l-1.548,2.652h1.637Zm10.452-4.892,0.9,5.49h0.05q0.328-1.319.581-2.072l1.164-3.418h1.944l-2.76,8.164h-2.541l-0.887-5.74h-0.044q-0.369,1.625-.614,2.334l-1.152,3.406h-1.944l2.76-8.164h2.541Zm7.557,6.283a3.294,3.294,0,0,0,1.072.2,1.065,1.065,0,0,0,.647-0.174,0.69,0.69,0,0,0,.275-0.491,0.579,0.579,0,0,0-.032-0.282,0.953,0.953,0,0,0-.156-0.262,8.135,8.135,0,0,0-.586-0.578,3.037,3.037,0,0,1-.813-1.073,2.314,2.314,0,0,1-.144-1.2,2.717,2.717,0,0,1,.532-1.315,2.915,2.915,0,0,1,1.148-.905,3.67,3.67,0,0,1,1.534-.321,4.413,4.413,0,0,1,2.326.6l-0.964,1.658a3.354,3.354,0,0,0-1.563-.491,0.944,0.944,0,0,0-.57.156,0.639,0.639,0,0,0-.25.458,0.727,0.727,0,0,0,.122.511,3.468,3.468,0,0,0,.632.634,2.967,2.967,0,0,1,.847,1.022,2.2,2.2,0,0,1,.163,1.228,2.747,2.747,0,0,1-1.065,1.93,3.833,3.833,0,0,1-2.377.689,4.524,4.524,0,0,1-1.144-.137,2.636,2.636,0,0,1-.894-0.4l0.248-1.954A4.241,4.241,0,0,0,173.522,169.152Z"/>
</svg>
