<svg xmlns="http://www.w3.org/2000/svg" width="200" height="200" viewBox="0 0 200 200">
  <defs>
    <style>
      .cls-1 {
        fill: #fff;
      }

      .cls-1, .cls-2, .cls-3 {
        fill-rule: evenodd;
      }

      .cls-3 {
        fill: #00afd4;
      }
    </style>
  </defs>
  <path id="bg" class="cls-1" d="M10.083,0.041h180a10,10,0,0,1,10,10v180a10,10,0,0,1-10,10h-180a10,10,0,0,1-10-10v-180A10,10,0,0,1,10.083.041Z"/>
  <path id="a" class="cls-2" d="M162.6,186.753H138.29v-6.947h13.893v-20.84h-6.946v13.893H138.29v-6.946h-6.947v-6.947H124.4v-6.947H117.45v-6.946H124.4v-6.947H117.45v-6.947H124.4v-6.946H138.29v-6.947H124.4v-6.947H117.45v6.947H110.5v-6.947h-6.946V96.446H96.61v13.893H89.663v13.894H82.717v-6.947H75.77v-6.947h6.947v-6.946h6.947V89.5H110.5V82.553h6.947v20.84h13.893V89.5h6.947v6.947h6.947v6.947h6.946V96.446h-6.946V89.5h6.946V82.553h6.947V89.5h13.893v6.947h13.894v13.893H179.97v-6.946H166.077V96.446H159.13v27.787h20.84v-6.947h6.947v34.733H179.97v6.947h6.947v6.947H179.97v6.946h-6.947v6.947h13.894v6.947H162.6Zm-10.42-72.94v-3.474h-6.946v6.947h6.946v-3.473Zm0,27.786v-10.42h-20.84v20.84h20.84V141.6Zm6.947,31.26v6.947h6.947V165.913H159.13v6.946Zm6.947-27.786V131.179H159.13v20.84h6.947v6.947h6.946V145.073h-6.946Zm10.42-6.947h3.473v-6.947h-6.947v6.947H176.5Zm-38.207,6.947v-6.947h6.947v6.947H138.29Zm27.787-27.787v-6.947H179.97v6.947H166.077ZM75.77,103.393V96.446h6.947v6.947H75.77Zm0,6.946H68.823v13.894H75.77v6.946h6.947v6.947H96.61v-6.947h6.947v-6.946H110.5v13.893h-6.946v13.893H110.5v20.84H89.663v6.947H82.717v6.947H68.823V158.966H75.77v13.893h6.947v-20.84H75.77V138.126H68.823v-6.947H47.983v-6.946H61.877v-6.947H54.93v-6.947h6.947v-6.946H75.77v6.946Zm13.893,52.1v3.474H96.61v-6.947H89.663v3.473Zm0-13.893v3.473H96.61v-6.946H89.663v3.473Zm27.787-10.42v6.947H110.5v-6.947h6.947Zm-13.893-13.893H96.61V110.339h6.947v13.894Zm-6.947,0v6.946H89.663v-6.946H96.61Zm-41.68-20.84V96.446h6.947v6.947H54.93Zm48.627-20.84V75.606H110.5v6.947h-6.946ZM110.5,54.766h-6.946v6.947H96.61V47.82h6.947V33.926H96.61V47.82H82.717v6.947H75.77V47.82H68.823V26.98H75.77v6.947h6.947v6.947h6.947V26.98h13.894V13.086H110.5v20.84h6.947v6.947h13.893V68.66h6.947v6.947H110.5V54.766Zm6.947,0v6.947H124.4V47.82H117.45v6.947ZM75.77,61.713H68.823V54.766H75.77v6.947Zm6.947,0V68.66H75.77V61.713h6.947Zm0-6.947h6.947v6.947H82.717V54.766ZM96.61,61.713V68.66H89.663V61.713H96.61ZM75.77,75.606H68.823V68.66H75.77v6.947Zm6.947,0v6.947H75.77V75.606h6.947ZM75.77,89.5H68.823V82.553H75.77V89.5Zm41.68-62.52H124.4v6.947H117.45V26.98ZM124.4,13.086h6.946V26.98H124.4V13.086Zm0,76.413V82.553h6.946V89.5H124.4Zm20.84-6.947V75.606h6.946v6.947h-6.946Zm6.946-13.893h20.84v6.947h-20.84V68.66Zm27.787,6.947v6.947h-6.947V75.606h6.947Zm0-6.947h6.947v6.947H179.97V68.66ZM68.823,20.033V13.086H82.717v6.947H68.823ZM47.983,89.5V82.553H34.09V75.606H20.2v6.947H13.25V68.66H41.037v6.947H54.93v6.947h6.947V89.5H47.983Zm0,6.947H41.037v6.947H13.25V96.446H20.2V89.5h6.947v6.947H34.09V89.5H47.983v6.947ZM54.93,68.66h6.947v6.947H54.93V68.66ZM20.2,117.286v6.947H13.25v-6.947H20.2Zm0-6.947H34.09v6.947H20.2v-6.947Zm20.84,13.894v6.946H34.09v-6.946h6.947Zm0-10.42v-3.474h6.947v6.947H41.037v-3.473Zm62.52,65.993v6.947H96.61v-6.947h6.947Zm13.893,0v6.947H110.5v-6.947h6.947Z"/>
  <path id="b" class="cls-3" d="M179,61H147a8,8,0,0,1-8-8V21a8,8,0,0,1,8-8h32a8,8,0,0,1,8,8V53A8,8,0,0,1,179,61Zm1-37a4,4,0,0,0-4-4H150a4,4,0,0,0-4,4V50a4,4,0,0,0,4,4h26a4,4,0,0,0,4-4V24Zm-9.083,23H155.083A2.083,2.083,0,0,1,153,44.917V29.083A2.083,2.083,0,0,1,155.083,27h15.834A2.083,2.083,0,0,1,173,29.083V44.917A2.083,2.083,0,0,1,170.917,47ZM53,187H21a8,8,0,0,1-8-8V147a8,8,0,0,1,8-8H53a8,8,0,0,1,8,8v32A8,8,0,0,1,53,187Zm1-37a4,4,0,0,0-4-4H24a4,4,0,0,0-4,4v26a4,4,0,0,0,4,4H50a4,4,0,0,0,4-4V150Zm-9.083,23H29.083A2.083,2.083,0,0,1,27,170.917V155.083A2.083,2.083,0,0,1,29.083,153H44.917A2.083,2.083,0,0,1,47,155.083v15.834A2.083,2.083,0,0,1,44.917,173ZM53,61H21a8,8,0,0,1-8-8V21a8,8,0,0,1,8-8H53a8,8,0,0,1,8,8V53A8,8,0,0,1,53,61Zm1-37a4,4,0,0,0-4-4H24a4,4,0,0,0-4,4V50a4,4,0,0,0,4,4H50a4,4,0,0,0,4-4V24ZM44.917,47H29.083A2.083,2.083,0,0,1,27,44.917V29.083A2.083,2.083,0,0,1,29.083,27H44.917A2.083,2.083,0,0,1,47,29.083V44.917A2.083,2.083,0,0,1,44.917,47Z"/>
</svg>
