<!-- Person 20 rounded weight 400 -->
<svg
    xmlns="http://www.w3.org/2000/svg"
    height="20"
    width="20"
    viewBox="0 -960 960 960"
  >
    <path
      fill="currentColor"
      d="M480-493.309q-59.749 0-99.874-40.124-40.125-40.125-40.125-99.874 0-59.75 40.125-99.874 40.125-40.125 99.874-40.125 59.749 0 99.874 40.125 40.125 40.124 40.125 99.874 0 59.749-40.125 99.874-40.125 40.124-99.874 40.124Zm238.231 305.615H241.769q-26.957 0-45.862-18.906-18.906-18.905-18.906-45.862v-27.154q0-30.384 16.462-54.922 16.461-24.538 42.835-37.022 58.626-27.055 120.472-41.593 61.846-14.538 123.23-14.538 61.384 0 123.73 14.538 62.346 14.538 119.654 41.615 26.692 12.462 43.153 37 16.462 24.538 16.462 54.922v27.154q0 26.957-18.906 45.862-18.905 18.906-45.862 18.906ZM241-251.693h478v-28.179q0-11.898-6.539-21.244-6.538-9.346-17.615-12.885-49.692-23.461-105.418-36.577Q533.702-363.693 480-363.693t-109.428 13.615q-55.726 13.616-105.418 36.077-11.177 5.452-17.665 13.842Q241-291.77 241-279.872v28.179Zm239-305.614q33 0 54.5-21.5t21.5-54.5q0-33-21.5-54.5t-54.5-21.5q-33 0-54.5 21.5t-21.5 54.5q0 33 21.5 54.5t54.5 21.5Zm0-76Zm0 381.614Z"
    />
</svg>