<svg xmlns="http://www.w3.org/2000/svg" width="100" height="67" viewBox="0 0 100 67">
  <path id="logo" fill="#ffffff" d="M97.426,67.013H79.185a4.423,4.423,0,0,1-3.909-2.966s-0.471-1.39-.9-2.834a8.212,8.212,0,0,1-.046-5.987C76.366,48.8,81.3,33.38,83.849,25.278c0.7-2.23,2.572-2.229,3.364.269,3.794,11.963,12.237,38.5,12.237,38.5A2.1,2.1,0,0,1,97.426,67.013ZM60.863,64.047a4.423,4.423,0,0,1-3.909,2.966H38.713a2.1,2.1,0,0,1-2.023-2.966l19.47-61.07A4.423,4.423,0,0,1,60.068.011H78.309a2.1,2.1,0,0,1,2.023,2.966Zm-36.482,0a4.423,4.423,0,0,1-3.909,2.966H2.231A2.094,2.094,0,0,1,.208,64.047l19.47-61.07A4.423,4.423,0,0,1,23.586.011H41.827A2.094,2.094,0,0,1,43.85,2.977Z"/>
</svg>
