<svg xmlns="http://www.w3.org/2000/svg" width="512" height="512" viewBox="0 0 512 512">
  <path fill="#00afd4" d="M453.219,471.168c-42.2,37.662-110.574,40.894-168.366,40.894H227.518c-57.791,0-126.167-3.232-168.365-40.894C9.562,426.909-.1,350.838-0.1,282.274v-55.15C-0.1,159.19,8.991,86.373,57.791,42.15,100.154,3.76,169.1.105,227.518,0.105h57.335c58.416,0,127.364,3.654,169.728,42.044,48.8,44.224,57.387,117.04,57.387,184.974v55.15C511.968,350.838,502.809,426.909,453.219,471.168Z"/>
  <path fill="#fff" d="M418.5,363.531H357c-5.523,0-11.423-4.478-13.179-10,0,0-1.59-4.687-3.036-9.554-2.213-7.447-3-11.219-.154-20.185,6.865-21.669,23.485-73.656,32.092-100.971,2.369-7.52,8.672-7.516,11.343.908,12.79,40.334,41.255,129.8,41.255,129.8C427.077,359.053,424.023,363.531,418.5,363.531Zm-125.821-10c-1.756,5.522-7.656,10-13.179,10H218c-5.523,0-8.577-4.478-6.821-10L276.822,147c1.755-5.523,7.655-10,13.178-10h61.5c5.523,0,8.577,4.477,6.822,10Zm-123,0c-1.756,5.522-7.656,10-13.179,10H95c-5.523,0-8.577-4.478-6.822-10L153.822,147c1.755-5.523,7.655-10,13.178-10h61.5c5.523,0,8.577,4.477,6.822,10Z"/>
</svg>
