<!-- Weight: 300 -->
<svg
    xmlns="http://www.w3.org/2000/svg"
    height="24"
    width="24"
    viewBox="0 -960 960 960"
  >
    <path
      fill="currentColor"
      d="M480-131.539q-33.922 0-57.345-23.731-23.423-23.73-23.423-57.037 0-33.923 23.423-57.345 23.423-23.423 57.345-23.423t57.345 23.423q23.423 23.422 23.423 57.345 0 33.307-23.423 57.037-23.423 23.731-57.345 23.731Zm363.539-414.46q-74.154-63.616-166.731-98.808Q584.231-680 480-680q-21 0-41.077 1.5Q418.846-677 400-674l-76.614-76.614q35.154-9.307 73.922-13.961 38.769-4.654 82.692-4.654 123.077 0 231.884 42.193 108.808 42.192 194.115 117.346 14 11.769 14.308 29.807.307 18.038-13.077 32.038-12.769 12.769-30.922 13.192-18.154.423-32.769-11.346ZM708-366l-19.038-19.038-19.038-19.038-113.613-113.613q47.152 6.384 93.767 26.923 46.614 20.538 85.537 52.153 14.615 11.153 14.807 29.191.192 18.038-13.192 31.423-6.308 6.307-13.692 9.076T708-366Zm64.001 264.306L439.386-436.308q-42.77 4.308-81.655 20.077-38.885 15.77-70.655 40.847-15.846 11.154-33.691 10.731-17.846-.423-30.615-13.192-13.384-13.385-12.769-31.846.615-18.461 14.615-28.999 29.539-24.924 65.732-43.655t75.348-27.654L247.232-628.462q-33.154 14.384-67.193 35.962-34.039 21.577-63.578 46.885-14.615 11.769-32.769 11.462-18.153-.308-30.537-13.692Q40.77-561.23 40.77-579.691t14-29.614q29.924-26.309 61.886-48.078 31.962-21.77 64.116-37.539l-66.77-66.77q-8.692-8.692-8.692-21.077 0-12.384 8.692-21.076t21.077-8.692q12.384 0 21.076 8.692l658.999 658.999q8.692 8.692 8.692 21.576t-8.692 21.576q-9.308 9.308-21.885 9-12.576-.307-21.268-9Z"
    />
</svg>