<svg
    xmlns="http://www.w3.org/2000/svg"
    height="46"
    width="46"
    viewBox="0 0 46 46"
  >
    <path
      id="skype"
      fill="currentColor"
      d="M23.01,46.014a23,23,0,1,1,23-23A23,23,0,0,1,23.01,46.014ZM35.749,28.92a6.84,6.84,0,0,0-.6-3.07,11.891,11.891,0,0,0,.286-2.561A12.056,12.056,0,0,0,23.28,11.329H23.248a12.406,12.406,0,0,0-2.068.175,7.062,7.062,0,0,0-3.738-1.066A6.982,6.982,0,0,0,10.4,17.357c0,0.005,0,.011,0,0.016a6.856,6.856,0,0,0,.891,3.5A11.786,11.786,0,0,0,23.168,35.044a12.413,12.413,0,0,0,2.227-.207,7.269,7.269,0,0,0,3.324,1.018,6.982,6.982,0,0,0,7.03-6.934h0Zm-9.018.843a8.24,8.24,0,0,1-3.181.573,7.729,7.729,0,0,1-3.674-.779,4.77,4.77,0,0,1-1.59-1.479,3.18,3.18,0,0,1-.636-1.813,1.161,1.161,0,0,1,.382-0.875,1.368,1.368,0,0,1,.986-0.366,1.209,1.209,0,0,1,.811.286,2.18,2.18,0,0,1,.573.843,5.374,5.374,0,0,0,.62,1.1,2.466,2.466,0,0,0,.938.732,3.753,3.753,0,0,0,1.591.286,3.816,3.816,0,0,0,2.052-.6,1.718,1.718,0,0,0,.843-1.447,1.463,1.463,0,0,0-.461-1.113,2.989,2.989,0,0,0-1.177-.652q-0.716-.223-1.94-0.477a15.032,15.032,0,0,1-2.7-.811,4.357,4.357,0,0,1-1.734-1.272,3.4,3.4,0,0,1,.048-4.024A4.232,4.232,0,0,1,20.432,16.5a8.62,8.62,0,0,1,3.006-.477,8.136,8.136,0,0,1,2.4.318,5.2,5.2,0,0,1,1.67.843,3.561,3.561,0,0,1,.97,1.1,2.37,2.37,0,0,1,.3,1.113,1.336,1.336,0,0,1-1.336,1.3,1.176,1.176,0,0,1-.8-0.238,3.183,3.183,0,0,1-.588-0.8,3.612,3.612,0,0,0-.986-1.225,3.071,3.071,0,0,0-1.845-.445,3.387,3.387,0,0,0-1.909.477,1.368,1.368,0,0,0-.716,1.145,1.114,1.114,0,0,0,.239.716,1.989,1.989,0,0,0,.684.525,4.908,4.908,0,0,0,.875.334l1.463,0.35a23.231,23.231,0,0,1,2.306.6,7.347,7.347,0,0,1,1.75.8,3.4,3.4,0,0,1,1.129,1.193,3.564,3.564,0,0,1,.413,1.765,3.833,3.833,0,0,1-.684,2.274A4.6,4.6,0,0,1,26.731,29.763Z"
    />
  </svg>