<svg
    xmlns="http://www.w3.org/2000/svg"
    height="46"
    width="46"
    viewBox="0 0 46 46"
  >
    <path
      id="telegram"
      fill="currentColor"
      d="M23.01,46.014a23,23,0,1,1,23-23A23,23,0,0,1,23.01,46.014ZM18.245,35.186l3.307-3.7-4.076-3.124-0.036,6.47Zm16.29-22.9a0.585,0.585,0,0,0-.4-0.435,2.049,2.049,0,0,0-1.079.077s-24.041,8.641-25.414,9.6a0.993,0.993,0,0,0-.444.466,0.807,0.807,0,0,0,.5.982l6.2,2.019a0.679,0.679,0,0,0,.313-0.019c1.41-.89,14.182-8.956,14.919-9.227,0.116-.035.2,0,0.18,0.085-0.3,1.035-11.388,10.9-11.388,10.9a0.334,0.334,0,0,0-.088.222,0.269,0.269,0,0,0,.115.191c1.408,0.942,7.778,5.223,9.622,6.809a1.72,1.72,0,0,0,1.254.485,1.414,1.414,0,0,0,1.2-1.067s4.382-17.632,4.528-19.994c0.015-.231.034-0.379,0.036-0.538A1.978,1.978,0,0,0,34.536,12.282Z"
    />
  </svg>