<svg
    xmlns="http://www.w3.org/2000/svg"
    height="46"
    width="46"
    viewBox="0 0 46 46"
  >
    <path
      id="twitter"
      fill="currentColor"
      d="M23.01,46.014a23,23,0,1,1,23-23A23,23,0,0,1,23.01,46.014ZM37.264,12.32a12.047,12.047,0,0,1-3.813,1.458,6.01,6.01,0,0,0-10.232,5.476,17.042,17.042,0,0,1-12.375-6.273A6.012,6.012,0,0,0,12.7,21a5.966,5.966,0,0,1-2.725-.751v0.076a6,6,0,0,0,4.816,5.885,5.984,5.984,0,0,1-2.711.1,6.012,6.012,0,0,0,5.61,4.17,12.057,12.057,0,0,1-7.457,2.575,12.188,12.188,0,0,1-1.429-.087,17,17,0,0,0,9.2,2.692v0c11.044,0,17.084-9.15,17.084-17.084,0-.26,0-0.518-0.018-0.776a12.2,12.2,0,0,0,3-3.11,11.94,11.94,0,0,1-3.448.945A6.026,6.026,0,0,0,37.264,12.32Z"
    />
  </svg>