<svg
    xmlns="http://www.w3.org/2000/svg"
    height="46"
    width="46"
    viewBox="0 0 46 46"
  >
    <path
      id="viber"
      fill="currentColor"
      d="M23.01,46.014a23,23,0,1,1,23-23A23,23,0,0,1,23.01,46.014ZM35.335,17.239l-0.008-.03A8.828,8.828,0,0,0,29.3,11.561l-0.029-.006a34.4,34.4,0,0,0-12.612,0l-0.03.006A8.831,8.831,0,0,0,10.6,17.209l-0.007.03a23.417,23.417,0,0,0,0,10.353l0.007,0.03a8.3,8.3,0,0,0,5.442,5.421v3.73a0.927,0.927,0,0,0,1.623.765l3.031-3.63c0.62,0.034,1.4-.029,2.024-0.029a37.592,37.592,0,0,0,6.552-.829l0.029-.006c2.587-.549,5.4-2.962,6.029-5.422l0.008-.03A23.414,23.414,0,0,0,35.335,17.239Zm-6.148,6.15a0.424,0.424,0,0,1-.4-0.459c-0.034-.473-0.058-0.948-0.123-1.417a5.939,5.939,0,0,0-4.783-4.964c-0.371-.066-0.75-0.084-1.126-0.123a0.544,0.544,0,0,1-.6-0.334,0.406,0.406,0,0,1,.4-0.457c0.064,0,.129,0,0.193,0a6.753,6.753,0,0,1,6.639,5.585c0.1,0.56.135,1.132,0.18,1.7A0.4,0.4,0,0,1,29.188,23.389Zm-6.444-7.755C26.068,15.727,22.68,15.633,22.744,15.633Zm0.012,2.129a0.357,0.357,0,0,1,.4-0.353,5.227,5.227,0,0,1,2.178.567,4.4,4.4,0,0,1,2.4,3.422c0.01,0.07.027,0.139,0.032,0.209,0.013,0.173.021,0.346,0.035,0.574a1.512,1.512,0,0,1-.033.231,0.377,0.377,0,0,1-.711.039,1,1,0,0,1-.04-0.321,4.025,4.025,0,0,0-.509-2.02,3.759,3.759,0,0,0-1.576-1.479,4.537,4.537,0,0,0-1.257-.386c-0.189-.031-0.381-0.05-0.571-0.077A0.362,0.362,0,0,1,22.756,17.762ZM25.272,21.7a4.183,4.183,0,0,0-.078-0.531,1.494,1.494,0,0,0-.551-0.865,1.436,1.436,0,0,0-.449-0.217c-0.2-.059-0.416-0.043-0.619-0.093a0.38,0.38,0,0,1-.309-0.441,0.4,0.4,0,0,1,.421-0.321,2.285,2.285,0,0,1,2.341,2.276,1.053,1.053,0,0,1,0,.323,0.329,0.329,0,0,1-.29.269c0.02,0,.028,0-0.007,0-0.187,0-.069,0-0.007,0A0.409,0.409,0,0,1,25.272,21.7ZM23,26.027a1.835,1.835,0,0,0,.924.224c0.565-.066.748-0.686,1.144-1.009a1.078,1.078,0,0,1,1.3-.057c0.417,0.264.821,0.547,1.223,0.833a13.984,13.984,0,0,1,1.15.876,0.913,0.913,0,0,1,.273,1.13,3.82,3.82,0,0,1-1.642,1.809,3.961,3.961,0,0,1-.71.226c-0.277-.084-0.541-0.141-0.786-0.242a17.864,17.864,0,0,1-6.732-4.5,17.473,17.473,0,0,1-2.575-3.941c-0.331-.672-0.609-1.37-0.893-2.063a1.79,1.79,0,0,1,.524-1.762,4.14,4.14,0,0,1,1.387-1.042,0.89,0.89,0,0,1,1.113.264,14.359,14.359,0,0,1,1.723,2.411,1.148,1.148,0,0,1-.322,1.554c-0.13.089-.249,0.192-0.371,0.293a1.214,1.214,0,0,0-.28.295,0.808,0.808,0,0,0-.054.71A6.42,6.42,0,0,0,23,26.027Z"
    />
  </svg>