<svg
    xmlns="http://www.w3.org/2000/svg"
    height="46"
    width="46"
    viewBox="0 0 46 46"
  >
    <path
      id="whatsapp"
      fill="currentColor"
      d="M23.01,46.014a23,23,0,1,1,23-23A23,23,0,0,1,23.01,46.014ZM23.5,10.082H23.5a12.411,12.411,0,0,0-10.051,19.7l-2.11,5.3,5.336-2.213A12.416,12.416,0,1,0,23.5,10.082Zm4.789,19.289c-0.649.138-1.5,0.248-4.349-.934-3.649-1.512-6-5.22-6.183-5.461a7.093,7.093,0,0,1-1.475-3.746,3.964,3.964,0,0,1,1.27-3.022,1.8,1.8,0,0,1,1.27-.446c0.154,0,.292.008,0.416,0.014a0.723,0.723,0,0,1,.789.613c0.3,0.722,1.029,2.5,1.116,2.687a0.739,0.739,0,0,1,.053.672,2.15,2.15,0,0,1-.4.57c-0.183.211-.357,0.373-0.54,0.6a0.584,0.584,0,0,0-.146.773,11.022,11.022,0,0,0,2.015,2.5,9.131,9.131,0,0,0,2.912,1.8,0.785,0.785,0,0,0,.875-0.138,15.041,15.041,0,0,0,.97-1.285,0.693,0.693,0,0,1,.891-0.27c0.335,0.116,2.11.994,2.474,1.175a1.78,1.78,0,0,1,.694.424,3.094,3.094,0,0,1-.213,1.723A3.5,3.5,0,0,1,28.292,29.371Z"
    />
  </svg>