<!-- Alternate Email 24 rounded weight 300 -->
<svg
    xmlns="http://www.w3.org/2000/svg"
    height="24"
    width="24"
    viewBox="0 -960 960 960"
  >
    <path
      fill="currentColor"
      d="M480-100.001q-78.538 0-148.076-29.77-69.539-29.769-120.961-81.192-51.423-51.422-81.192-120.961-29.77-69.538-29.77-148.076 0-79.538 29.77-148.576 29.769-69.039 81.192-120.461 51.422-51.423 120.961-81.192 69.538-29.77 148.076-29.77 79.538 0 148.576 29.77 69.039 29.769 120.461 81.192 51.423 51.422 81.192 120.461 29.77 69.038 29.77 148.576v48.769q0 54.768-37.616 92.999-37.615 38.231-92.384 38.231-37.923 0-67.192-17.731-29.269-17.731-46.192-47.193-24.692 29.308-57.923 47.116-33.23 17.808-78.692 17.808-74.922 0-127.461-52.538Q300.001-405.078 300.001-480t52.538-127.461Q405.078-659.999 480-659.999t127.461 52.538Q659.999-554.922 659.999-480v48.769q0 31.692 20.692 51.462Q701.384-360 729.999-360q28.616 0 49.308-19.769Q800-399.539 800-431.231V-480q0-131-94.5-225.5T480-800q-131 0-225.5 94.5T160-480q0 131 94.5 225.5T480-160h170.001q12.769 0 21.384 8.615T680-130.001q0 12.769-8.615 21.384-8.615 8.616-21.384 8.616H480ZM480-360q50 0 85-35t35-85q0-50-35-85t-85-35q-50 0-85 35t-35 85q0 50 35 85t85 35Z"
    />
</svg>