<!-- QR Code Scanner rounded 24 weight 300 -->
<svg
    xmlns="http://www.w3.org/2000/svg"
    height="24"
    width="24"
    viewBox="0 -960 960 960"
  >
    <path
      fill="currentColor"
      d="M129.987-679.231q-12.755 0-21.37-8.624-8.616-8.625-8.616-21.375v-115.384q0-15.039 10.173-25.212t25.212-10.173H250.77q12.75 0 21.375 8.629 8.624 8.629 8.624 21.384 0 12.756-8.624 21.371Q263.52-800 250.77-800H160v90.77q0 12.75-8.629 21.375-8.628 8.624-21.384 8.624Zm5.399 579.23q-15.039 0-25.212-10.173t-10.173-25.212V-250.77q0-12.75 8.629-21.375 8.629-8.624 21.384-8.624 12.756 0 21.371 8.624Q160-263.52 160-250.77V-160h90.77q12.75 0 21.375 8.629 8.624 8.628 8.624 21.384 0 12.755-8.624 21.37-8.625 8.616-21.375 8.616H135.386Zm573.844 0q-12.75 0-21.375-8.629-8.624-8.629-8.624-21.384 0-12.756 8.624-21.371Q696.48-160 709.23-160H800v-90.77q0-12.75 8.629-21.375 8.628-8.624 21.384-8.624 12.755 0 21.37 8.624 8.616 8.625 8.616 21.375v115.384q0 15.039-10.173 25.212t-25.212 10.173H709.23Zm120.756-579.23q-12.756 0-21.371-8.624Q800-696.48 800-709.23V-800h-90.77q-12.75 0-21.375-8.629-8.624-8.628-8.624-21.384 0-12.755 8.624-21.37 8.625-8.616 21.375-8.616h115.384q15.039 0 25.212 10.173t10.173 25.212v115.384q0 12.75-8.629 21.375-8.629 8.624-21.384 8.624ZM688.845-271.155h54.231v54.231h-54.231v-54.231Zm0-108.46h54.231v54.23h-54.231v-54.23Zm-54.23 54.23h54.23v54.23h-54.23v-54.23Zm-54.23 54.23h54.23v54.231h-54.23v-54.231Zm-54.231-54.23h54.231v54.23h-54.231v-54.23Zm108.461-108.461h54.23v54.231h-54.23v-54.231Zm-54.23 54.231h54.23v54.23h-54.23v-54.23Zm-54.231-54.231h54.231v54.231h-54.231v-54.231Zm216.922-309.23v216.922H526.154v-216.922h216.922Zm-309.23 309.23v216.922H216.924v-216.922h216.922Zm0-309.23v216.922H216.924v-216.922h216.922Zm-47.692 478.46v-121.538H264.616v121.538h121.538Zm0-309.23v-121.538H264.616v121.538h121.538Zm309.23 0v-121.538H573.846v121.538h121.538Z"
    />
</svg>